<mxfile host="app.diagrams.net" modified="2021-04-07T19:23:38.750Z" agent="5.0 (Windows NT 10.0; Win64; x64) AppleWebKit/537.36 (KHTML, like Gecko) Chrome/89.0.4389.114 Safari/537.36" etag="tEkqOZhw-qX4tb89N3uS" version="14.5.7" type="github">
  <diagram id="ITqQMh73DEWMcqBuBgU3" name="Page-1">
    <mxGraphModel dx="868" dy="450" grid="1" gridSize="10" guides="1" tooltips="1" connect="1" arrows="1" fold="1" page="1" pageScale="1" pageWidth="850" pageHeight="1100" math="0" shadow="0">
      <root>
        <mxCell id="0" />
        <mxCell id="1" parent="0" />
        <mxCell id="c6R_e1xZP-nfZ6xmoIfk-1" value="User_id(pk)&lt;br&gt;name&lt;br&gt;email&lt;br&gt;password&lt;br&gt;age&lt;br&gt;gender&lt;br&gt;city&lt;br&gt;country" style="whiteSpace=wrap;html=1;aspect=fixed;" parent="1" vertex="1">
          <mxGeometry x="50" y="360" width="140" height="140" as="geometry" />
        </mxCell>
        <mxCell id="c6R_e1xZP-nfZ6xmoIfk-2" value="&lt;br&gt;google_id(pk)&lt;br&gt;name&lt;br&gt;genre&lt;br&gt;Subject" style="whiteSpace=wrap;html=1;aspect=fixed;" parent="1" vertex="1">
          <mxGeometry x="553" y="359" width="140" height="140" as="geometry" />
        </mxCell>
        <mxCell id="c6R_e1xZP-nfZ6xmoIfk-3" value="id(pk)&lt;br&gt;google_id(fk)&lt;br&gt;User_id(fk)&lt;br&gt;review&lt;br&gt;favorite&lt;br&gt;suggest" style="whiteSpace=wrap;html=1;aspect=fixed;" parent="1" vertex="1">
          <mxGeometry x="300" y="360" width="140" height="140" as="geometry" />
        </mxCell>
        <mxCell id="c6R_e1xZP-nfZ6xmoIfk-4" value="" style="endArrow=classic;html=1;exitX=1;exitY=0.564;exitDx=0;exitDy=0;exitPerimeter=0;" parent="1" source="c6R_e1xZP-nfZ6xmoIfk-1" target="c6R_e1xZP-nfZ6xmoIfk-3" edge="1">
          <mxGeometry width="50" height="50" relative="1" as="geometry">
            <mxPoint x="190" y="460" as="sourcePoint" />
            <mxPoint x="240" y="410" as="targetPoint" />
          </mxGeometry>
        </mxCell>
        <mxCell id="c6R_e1xZP-nfZ6xmoIfk-6" value="" style="endArrow=classic;html=1;exitX=0;exitY=0.75;exitDx=0;exitDy=0;entryX=1;entryY=0.5;entryDx=0;entryDy=0;" parent="1" source="c6R_e1xZP-nfZ6xmoIfk-2" target="c6R_e1xZP-nfZ6xmoIfk-3" edge="1">
          <mxGeometry width="50" height="50" relative="1" as="geometry">
            <mxPoint x="500" y="460" as="sourcePoint" />
            <mxPoint x="550" y="410" as="targetPoint" />
          </mxGeometry>
        </mxCell>
        <mxCell id="c6R_e1xZP-nfZ6xmoIfk-8" value="*" style="text;html=1;align=center;verticalAlign=middle;resizable=0;points=[];autosize=1;" parent="1" vertex="1">
          <mxGeometry x="270" y="400" width="20" height="20" as="geometry" />
        </mxCell>
        <mxCell id="c6R_e1xZP-nfZ6xmoIfk-9" value="*" style="text;html=1;align=center;verticalAlign=middle;resizable=0;points=[];autosize=1;" parent="1" vertex="1">
          <mxGeometry x="440" y="400" width="20" height="20" as="geometry" />
        </mxCell>
        <mxCell id="c6R_e1xZP-nfZ6xmoIfk-16" value="*" style="text;html=1;align=center;verticalAlign=middle;resizable=0;points=[];autosize=1;" parent="1" vertex="1">
          <mxGeometry x="270" y="580" width="20" height="20" as="geometry" />
        </mxCell>
        <mxCell id="c6R_e1xZP-nfZ6xmoIfk-17" value="*" style="text;html=1;align=center;verticalAlign=middle;resizable=0;points=[];autosize=1;" parent="1" vertex="1">
          <mxGeometry x="260" y="650" width="20" height="20" as="geometry" />
        </mxCell>
      </root>
    </mxGraphModel>
  </diagram>
</mxfile>
